M48
;GenerationSoftware,Autodesk,EAGLE,9.6.2*%
;CreationDate,2021-07-18T04:09:37Z*%
FMAT,2
ICI,OFF
METRIC,TZ,000.000
T5C0.350
T4C0.760
T3C0.813
T2C1.016
T1C3.556
%
G90
M71
T1
X3810Y41910
X46990Y41910
X46990Y3810
X3810Y3810
T2
X5080Y31750
X5080Y29210
X5080Y26670
X5080Y24130
X25400Y31750
X5080Y21590
X5080Y19050
X5080Y16510
X25400Y16510
X25400Y19050
X25400Y21590
X25400Y24130
X25400Y26670
X25400Y29210
X20320Y6350
X17780Y6350
X12700Y6350
X10160Y6350
T3
X33020Y10922
X30480Y10922
X33020Y15494
X30480Y15494
X33020Y20193
X33020Y24765
X30480Y24765
X33020Y29337
X30480Y29337
X32893Y33909
X30353Y33909
X12827Y10541
X17907Y10541
X30480Y20193
X35941Y6477
X43561Y6477
X35941Y10922
X43561Y10922
X35941Y15494
X43561Y15494
X35941Y20193
X43561Y20193
X35941Y24638
X43561Y24638
X36068Y29464
X43688Y29464
X35814Y34036
X43434Y34036
X33020Y6350
X30480Y6350
T4
X11270Y26670
X11270Y31750
X11270Y29210
X11270Y24130
X11270Y21590
X11270Y19050
X11270Y16510
X11270Y13970
X19210Y13970
X19210Y16510
X19210Y21590
X19210Y31750
X19210Y19050
X19210Y29210
X19210Y26670
X19210Y24130
T5
X43586Y33680
X35662Y34011
M30