G04 EAGLE Gerber RS-274X export*
G75*
%MOMM*%
%FSLAX34Y34*%
%LPD*%
%IN*%
%IPPOS*%
%AMOC8*
5,1,8,0,0,1.08239X$1,22.5*%
G01*
%ADD10C,0.254000*%


D10*
X0Y0D02*
X507800Y0D01*
X507800Y453900D01*
X0Y453900D01*
X0Y0D01*
X55880Y418518D02*
X55804Y417356D01*
X55652Y416202D01*
X55425Y415060D01*
X55124Y413936D01*
X54749Y412834D01*
X54304Y411758D01*
X53789Y410714D01*
X53207Y409706D01*
X52560Y408738D01*
X51852Y407814D01*
X51084Y406939D01*
X50261Y406116D01*
X49386Y405349D01*
X48462Y404640D01*
X47494Y403993D01*
X46486Y403411D01*
X45442Y402896D01*
X44366Y402451D01*
X43264Y402077D01*
X42140Y401775D01*
X40998Y401548D01*
X39844Y401396D01*
X38682Y401320D01*
X37518Y401320D01*
X36356Y401396D01*
X35202Y401548D01*
X34060Y401775D01*
X32936Y402077D01*
X31834Y402451D01*
X30758Y402896D01*
X29714Y403411D01*
X28706Y403993D01*
X27738Y404640D01*
X26814Y405349D01*
X25939Y406116D01*
X25116Y406939D01*
X24349Y407814D01*
X23640Y408738D01*
X22993Y409706D01*
X22411Y410714D01*
X21896Y411758D01*
X21451Y412834D01*
X21077Y413936D01*
X20775Y415060D01*
X20548Y416202D01*
X20396Y417356D01*
X20320Y418518D01*
X20320Y419682D01*
X20396Y420844D01*
X20548Y421998D01*
X20775Y423140D01*
X21077Y424264D01*
X21451Y425366D01*
X21896Y426442D01*
X22411Y427486D01*
X22993Y428494D01*
X23640Y429462D01*
X24349Y430386D01*
X25116Y431261D01*
X25939Y432084D01*
X26814Y432852D01*
X27738Y433560D01*
X28706Y434207D01*
X29714Y434789D01*
X30758Y435304D01*
X31834Y435749D01*
X32936Y436124D01*
X34060Y436425D01*
X35202Y436652D01*
X36356Y436804D01*
X37518Y436880D01*
X38682Y436880D01*
X39844Y436804D01*
X40998Y436652D01*
X42140Y436425D01*
X43264Y436124D01*
X44366Y435749D01*
X45442Y435304D01*
X46486Y434789D01*
X47494Y434207D01*
X48462Y433560D01*
X49386Y432852D01*
X50261Y432084D01*
X51084Y431261D01*
X51852Y430386D01*
X52560Y429462D01*
X53207Y428494D01*
X53789Y427486D01*
X54304Y426442D01*
X54749Y425366D01*
X55124Y424264D01*
X55425Y423140D01*
X55652Y421998D01*
X55804Y420844D01*
X55880Y419682D01*
X55880Y418518D01*
X487680Y418518D02*
X487604Y417356D01*
X487452Y416202D01*
X487225Y415060D01*
X486924Y413936D01*
X486549Y412834D01*
X486104Y411758D01*
X485589Y410714D01*
X485007Y409706D01*
X484360Y408738D01*
X483652Y407814D01*
X482884Y406939D01*
X482061Y406116D01*
X481186Y405349D01*
X480262Y404640D01*
X479294Y403993D01*
X478286Y403411D01*
X477242Y402896D01*
X476166Y402451D01*
X475064Y402077D01*
X473940Y401775D01*
X472798Y401548D01*
X471644Y401396D01*
X470482Y401320D01*
X469318Y401320D01*
X468156Y401396D01*
X467002Y401548D01*
X465860Y401775D01*
X464736Y402077D01*
X463634Y402451D01*
X462558Y402896D01*
X461514Y403411D01*
X460506Y403993D01*
X459538Y404640D01*
X458614Y405349D01*
X457739Y406116D01*
X456916Y406939D01*
X456149Y407814D01*
X455440Y408738D01*
X454793Y409706D01*
X454211Y410714D01*
X453696Y411758D01*
X453251Y412834D01*
X452877Y413936D01*
X452575Y415060D01*
X452348Y416202D01*
X452196Y417356D01*
X452120Y418518D01*
X452120Y419682D01*
X452196Y420844D01*
X452348Y421998D01*
X452575Y423140D01*
X452877Y424264D01*
X453251Y425366D01*
X453696Y426442D01*
X454211Y427486D01*
X454793Y428494D01*
X455440Y429462D01*
X456149Y430386D01*
X456916Y431261D01*
X457739Y432084D01*
X458614Y432852D01*
X459538Y433560D01*
X460506Y434207D01*
X461514Y434789D01*
X462558Y435304D01*
X463634Y435749D01*
X464736Y436124D01*
X465860Y436425D01*
X467002Y436652D01*
X468156Y436804D01*
X469318Y436880D01*
X470482Y436880D01*
X471644Y436804D01*
X472798Y436652D01*
X473940Y436425D01*
X475064Y436124D01*
X476166Y435749D01*
X477242Y435304D01*
X478286Y434789D01*
X479294Y434207D01*
X480262Y433560D01*
X481186Y432852D01*
X482061Y432084D01*
X482884Y431261D01*
X483652Y430386D01*
X484360Y429462D01*
X485007Y428494D01*
X485589Y427486D01*
X486104Y426442D01*
X486549Y425366D01*
X486924Y424264D01*
X487225Y423140D01*
X487452Y421998D01*
X487604Y420844D01*
X487680Y419682D01*
X487680Y418518D01*
X487680Y37518D02*
X487604Y36356D01*
X487452Y35202D01*
X487225Y34060D01*
X486924Y32936D01*
X486549Y31834D01*
X486104Y30758D01*
X485589Y29714D01*
X485007Y28706D01*
X484360Y27738D01*
X483652Y26814D01*
X482884Y25939D01*
X482061Y25116D01*
X481186Y24349D01*
X480262Y23640D01*
X479294Y22993D01*
X478286Y22411D01*
X477242Y21896D01*
X476166Y21451D01*
X475064Y21077D01*
X473940Y20775D01*
X472798Y20548D01*
X471644Y20396D01*
X470482Y20320D01*
X469318Y20320D01*
X468156Y20396D01*
X467002Y20548D01*
X465860Y20775D01*
X464736Y21077D01*
X463634Y21451D01*
X462558Y21896D01*
X461514Y22411D01*
X460506Y22993D01*
X459538Y23640D01*
X458614Y24349D01*
X457739Y25116D01*
X456916Y25939D01*
X456149Y26814D01*
X455440Y27738D01*
X454793Y28706D01*
X454211Y29714D01*
X453696Y30758D01*
X453251Y31834D01*
X452877Y32936D01*
X452575Y34060D01*
X452348Y35202D01*
X452196Y36356D01*
X452120Y37518D01*
X452120Y38682D01*
X452196Y39844D01*
X452348Y40998D01*
X452575Y42140D01*
X452877Y43264D01*
X453251Y44366D01*
X453696Y45442D01*
X454211Y46486D01*
X454793Y47494D01*
X455440Y48462D01*
X456149Y49386D01*
X456916Y50261D01*
X457739Y51084D01*
X458614Y51852D01*
X459538Y52560D01*
X460506Y53207D01*
X461514Y53789D01*
X462558Y54304D01*
X463634Y54749D01*
X464736Y55124D01*
X465860Y55425D01*
X467002Y55652D01*
X468156Y55804D01*
X469318Y55880D01*
X470482Y55880D01*
X471644Y55804D01*
X472798Y55652D01*
X473940Y55425D01*
X475064Y55124D01*
X476166Y54749D01*
X477242Y54304D01*
X478286Y53789D01*
X479294Y53207D01*
X480262Y52560D01*
X481186Y51852D01*
X482061Y51084D01*
X482884Y50261D01*
X483652Y49386D01*
X484360Y48462D01*
X485007Y47494D01*
X485589Y46486D01*
X486104Y45442D01*
X486549Y44366D01*
X486924Y43264D01*
X487225Y42140D01*
X487452Y40998D01*
X487604Y39844D01*
X487680Y38682D01*
X487680Y37518D01*
X55880Y37518D02*
X55804Y36356D01*
X55652Y35202D01*
X55425Y34060D01*
X55124Y32936D01*
X54749Y31834D01*
X54304Y30758D01*
X53789Y29714D01*
X53207Y28706D01*
X52560Y27738D01*
X51852Y26814D01*
X51084Y25939D01*
X50261Y25116D01*
X49386Y24349D01*
X48462Y23640D01*
X47494Y22993D01*
X46486Y22411D01*
X45442Y21896D01*
X44366Y21451D01*
X43264Y21077D01*
X42140Y20775D01*
X40998Y20548D01*
X39844Y20396D01*
X38682Y20320D01*
X37518Y20320D01*
X36356Y20396D01*
X35202Y20548D01*
X34060Y20775D01*
X32936Y21077D01*
X31834Y21451D01*
X30758Y21896D01*
X29714Y22411D01*
X28706Y22993D01*
X27738Y23640D01*
X26814Y24349D01*
X25939Y25116D01*
X25116Y25939D01*
X24349Y26814D01*
X23640Y27738D01*
X22993Y28706D01*
X22411Y29714D01*
X21896Y30758D01*
X21451Y31834D01*
X21077Y32936D01*
X20775Y34060D01*
X20548Y35202D01*
X20396Y36356D01*
X20320Y37518D01*
X20320Y38682D01*
X20396Y39844D01*
X20548Y40998D01*
X20775Y42140D01*
X21077Y43264D01*
X21451Y44366D01*
X21896Y45442D01*
X22411Y46486D01*
X22993Y47494D01*
X23640Y48462D01*
X24349Y49386D01*
X25116Y50261D01*
X25939Y51084D01*
X26814Y51852D01*
X27738Y52560D01*
X28706Y53207D01*
X29714Y53789D01*
X30758Y54304D01*
X31834Y54749D01*
X32936Y55124D01*
X34060Y55425D01*
X35202Y55652D01*
X36356Y55804D01*
X37518Y55880D01*
X38682Y55880D01*
X39844Y55804D01*
X40998Y55652D01*
X42140Y55425D01*
X43264Y55124D01*
X44366Y54749D01*
X45442Y54304D01*
X46486Y53789D01*
X47494Y53207D01*
X48462Y52560D01*
X49386Y51852D01*
X50261Y51084D01*
X51084Y50261D01*
X51852Y49386D01*
X52560Y48462D01*
X53207Y47494D01*
X53789Y46486D01*
X54304Y45442D01*
X54749Y44366D01*
X55124Y43264D01*
X55425Y42140D01*
X55652Y40998D01*
X55804Y39844D01*
X55880Y38682D01*
X55880Y37518D01*
M02*
